<svg xmlns="http://www.w3.org/2000/svg" width="1000" height="1500" viewBox="0 0 1000 1500">

<rect width="100%" height="100%" fill="white"/>

<text x="500" y="70"
font-family="Arial"
font-size="38"
font-weight="bold"
text-anchor="middle">
Evolutionary Architecture of Intelligence
</text>

<text x="500" y="115"
font-family="Arial"
font-size="22"
text-anchor="middle">
From Capability to Human-AI Co-Creation
</text>

<!-- boxes -->

<g font-family="Arial" text-anchor="middle">

<rect x="200" y="170" width="600" height="120" rx="20" fill="none" stroke="black" stroke-width="3"/>
<text x="500" y="220" font-size="32" font-weight="bold">CO-CREATION</text>
<text x="500" y="260" font-size="22">Human + AI Shared Creation</text>

<line x1="500" y1="290" x2="500" y2="340" stroke="black" stroke-width="3"/>

<rect x="200" y="340" width="600" height="120" rx="20" fill="none" stroke="black" stroke-width="3"/>
<text x="500" y="390" font-size="32" font-weight="bold">GOVERNANCE</text>
<text x="500" y="430" font-size="22">Responsibility & Alignment</text>

<line x1="500" y1="460" x2="500" y2="510" stroke="black" stroke-width="3"/>

<rect x="200" y="510" width="600" height="120" rx="20" fill="none" stroke="black" stroke-width="3"/>
<text x="500" y="560" font-size="32" font-weight="bold">AUTONOMY</text>
<text x="500" y="600" font-size="22">Independent Operation</text>

<line x1="500" y1="630" x2="500" y2="680" stroke="black" stroke-width="3"/>

<rect x="200" y="680" width="600" height="120" rx="20" fill="none" stroke="black" stroke-width="3"/>
<text x="500" y="730" font-size="32" font-weight="bold">AGENCY</text>
<text x="500" y="770" font-size="22">Goal-directed Action</text>

<line x1="500" y1="800" x2="500" y2="850" stroke="black" stroke-width="3"/>

<rect x="200" y="850" width="600" height="120" rx="20" fill="none" stroke="black" stroke-width="3"/>
<text x="500" y="900" font-size="32" font-weight="bold">CONTINUITY</text>
<text x="500" y="940" font-size="22">Experience Across Time</text>

<line x1="500" y1="970" x2="500" y2="1020" stroke="black" stroke-width="3"/>

<rect x="200" y="1020" width="600" height="120" rx="20" fill="none" stroke="black" stroke-width="3"/>
<text x="500" y="1070" font-size="32" font-weight="bold">CONTEXT</text>
<text x="500" y="1110" font-size="22">Meaning & Environment</text>

<line x1="500" y1="1140" x2="500" y2="1190" stroke="black" stroke-width="3"/>

<rect x="200" y="1190" width="600" height="120" rx="20" fill="none" stroke="black" stroke-width="3"/>
<text x="500" y="1240" font-size="32" font-weight="bold">CAPABILITY</text>
<text x="500" y="1280" font-size="22">Processing & Problem Solving</text>

</g>

</svg>
